<?xml version="1.0" standalone="no"?><!-- Generator: Gravit.io --><svg xmlns="http://www.w3.org/2000/svg" xmlns:xlink="http://www.w3.org/1999/xlink" style="isolation:isolate" viewBox="0 0 110 50" width="110" height="50"><defs><clipPath id="_clipPath_pE933OnSWWjhKsbwRnu5xgDXmyggBiW7"><rect width="110" height="50"/></clipPath></defs><g clip-path="url(#_clipPath_pE933OnSWWjhKsbwRnu5xgDXmyggBiW7)"><g id="Group"><path d=" M 95.098 20.102 Q 99.285 27.65 104.05 25.293 Q 98.467 29.238 93.976 22.994 Q 92.637 23.825 91.733 27.631 Q 91.151 31.61 93.181 30.591 Q 114.043 22.775 101.678 43.32 C 108.471 24.281 98.454 33.662 90.088 35.664 Q 86.655 36.701 87.365 29.349 Q 88.264 22.325 92.409 19.597 C 91.024 18.55 90.707 16.413 91.733 14.637 C 92.831 12.734 95.057 11.959 96.701 12.908 C 98.344 13.857 98.787 16.172 97.688 18.075 C 97.076 19.135 96.114 19.845 95.098 20.102 Z " fill="rgb(0,184,169)"/><path d=" M 72.878 0.669 C 74.986 -0.548 77.551 -0.058 78.603 1.763 C 79.654 3.584 78.796 6.05 76.687 7.267 C 74.579 8.485 72.014 7.995 70.963 6.174 C 69.911 4.353 70.77 1.886 72.878 0.669 Z  M 90.955 14.637 Q 73.522 16.248 69.84 7.068 Q 62.532 6.872 55.172 12.367 Q 45.389 20.605 52.515 21.283 C 65.111 22.48 66.747 22.151 63.218 26.213 C 60.751 28.993 58.61 30.677 56.66 31.752 Q 60.262 31.124 64.123 28.786 C 74.524 21.698 71.564 19.636 63.218 18.2 Q 52.045 17.149 60.508 13.693 Q 66.713 12.053 69.847 13.693 Q 77.285 19.499 90.955 14.637 Z " fill-rule="evenodd" fill="rgb(255,255,255)"/><path d=" M 57.248 27.432 C 54.651 23.715 50.342 21.283 45.469 21.283 C 37.544 21.283 31.11 27.716 31.11 35.641 L 31.11 35.641 C 31.11 43.566 37.544 50 45.469 50 C 50.247 50 54.483 47.661 57.094 44.067 Q 55.587 44.004 54.774 44.067 C 51.137 44.345 49.157 48.196 45.469 48.196 C 38.539 48.196 32.914 42.571 32.914 35.641 L 32.914 35.641 C 32.914 28.712 38.539 23.086 45.469 23.086 C 49.261 23.086 51.229 27.148 54.965 27.432 Q 55.766 27.492 57.248 27.432 Z " fill="rgb(255,255,255)"/><path d="M 16.823 21.283 L 45.397 21.283 C 45.809 21.283 46.144 21.617 46.144 22.03 L 46.144 22.03 C 46.144 22.442 45.809 22.777 45.397 22.777 L 16.823 22.777 C 16.411 22.777 16.076 22.442 16.076 22.03 L 16.076 22.03 C 16.076 21.617 16.411 21.283 16.823 21.283 Z" style="stroke:none;fill:#FFFFFF;stroke-miterlimit:10;"/><path d="M 9.388 34.894 L 31.599 34.894 C 32.011 34.894 32.346 35.229 32.346 35.641 L 32.346 35.641 C 32.346 36.054 32.011 36.388 31.599 36.388 L 9.388 36.388 C 8.975 36.388 8.64 36.054 8.64 35.641 L 8.64 35.641 C 8.64 35.229 8.975 34.894 9.388 34.894 Z" style="stroke:none;fill:#FFFFFF;stroke-miterlimit:10;"/><path d="M 2.627 34.894 L 5.64 34.894 C 6.052 34.894 6.387 35.229 6.387 35.641 L 6.387 35.641 C 6.387 36.054 6.052 36.388 5.64 36.388 L 2.627 36.388 C 2.215 36.388 1.88 36.054 1.88 35.641 L 1.88 35.641 C 1.88 35.229 2.215 34.894 2.627 34.894 Z" style="stroke:none;fill:#FFFFFF;stroke-miterlimit:10;"/><path d="M 8.99 21.283 L 12.003 21.283 C 12.415 21.283 12.75 21.617 12.75 22.03 L 12.75 22.03 C 12.75 22.442 12.415 22.777 12.003 22.777 L 8.99 22.777 C 8.578 22.777 8.243 22.442 8.243 22.03 L 8.243 22.03 C 8.243 21.617 8.578 21.283 8.99 21.283 Z" style="stroke:none;fill:#FFFFFF;stroke-miterlimit:10;"/><path d="M 14.292 42.573 L 17.305 42.573 C 17.717 42.573 18.052 42.907 18.052 43.32 L 18.052 43.32 C 18.052 43.732 17.717 44.067 17.305 44.067 L 14.292 44.067 C 13.88 44.067 13.545 43.732 13.545 43.32 L 13.545 43.32 C 13.545 42.907 13.88 42.573 14.292 42.573 Z" style="stroke:none;fill:#FFFFFF;stroke-miterlimit:10;"/><path d="M 6.737 48.506 L 9.749 48.506 C 10.161 48.506 10.496 48.841 10.496 49.253 L 10.496 49.253 C 10.496 49.665 10.161 50 9.749 50 L 6.737 50 C 6.324 50 5.989 49.665 5.989 49.253 L 5.989 49.253 C 5.989 48.841 6.324 48.506 6.737 48.506 Z" style="stroke:none;fill:#FFFFFF;stroke-miterlimit:10;"/><path d="M 16.545 48.506 L 45.119 48.506 C 45.532 48.506 45.866 48.841 45.866 49.253 L 45.866 49.253 C 45.866 49.665 45.532 50 45.119 50 L 16.545 50 C 16.133 50 15.798 49.665 15.798 49.253 L 15.798 49.253 C 15.798 48.841 16.133 48.506 16.545 48.506 Z" style="stroke:none;fill:#FFFFFF;stroke-miterlimit:10;"/><path d="M 19.859 42.573 L 33.852 42.573 C 34.265 42.573 34.6 42.907 34.6 43.32 L 34.6 43.32 C 34.6 43.732 34.265 44.067 33.852 44.067 L 19.859 44.067 C 19.447 44.067 19.112 43.732 19.112 43.32 L 19.112 43.32 C 19.112 42.907 19.447 42.573 19.859 42.573 Z" style="stroke:none;fill:#FFFFFF;stroke-miterlimit:10;"/><path d=" M 89.193 40.537 C 89.193 35.314 93.434 31.074 98.656 31.074 C 103.879 31.074 108.12 35.314 108.12 40.537 C 108.12 45.76 103.879 50 98.656 50 C 93.434 50 89.193 45.76 89.193 40.537 Z  M 90.435 40.537 C 90.435 35.999 94.119 32.315 98.656 32.315 C 103.194 32.315 106.878 35.999 106.878 40.537 C 106.878 45.075 103.194 48.759 98.656 48.759 C 94.119 48.759 90.435 45.075 90.435 40.537 Z " fill-rule="evenodd" fill="rgb(255,255,255)"/><path d=" M 52.867 33.624 L 52.867 33.624 L 52.867 33.624 Q 51.984 33.624 51.499 34.288 L 51.499 34.288 L 51.499 34.288 Q 51.015 34.952 51.015 36.138 L 51.015 36.138 L 51.015 36.138 Q 51.015 38.607 52.867 38.607 L 52.867 38.607 L 52.867 38.607 Q 53.645 38.607 54.75 38.218 L 54.75 38.218 L 54.75 39.531 L 54.75 39.531 Q 53.842 39.91 52.721 39.91 L 52.721 39.91 L 52.721 39.91 Q 51.111 39.91 50.257 38.933 L 50.257 38.933 L 50.257 38.933 Q 49.404 37.956 49.404 36.128 L 49.404 36.128 L 49.404 36.128 Q 49.404 34.977 49.823 34.112 L 49.823 34.112 L 49.823 34.112 Q 50.242 33.246 51.027 32.784 L 51.027 32.784 L 51.027 32.784 Q 51.812 32.322 52.867 32.322 L 52.867 32.322 L 52.867 32.322 Q 53.943 32.322 55.028 32.842 L 55.028 32.842 L 54.523 34.114 L 54.523 34.114 Q 54.109 33.917 53.69 33.771 L 53.69 33.771 L 53.69 33.771 Q 53.271 33.624 52.867 33.624 Z  M 63.02 36.108 L 63.02 36.108 L 63.02 36.108 Q 63.02 37.941 62.111 38.925 L 62.111 38.925 L 62.111 38.925 Q 61.202 39.91 59.506 39.91 L 59.506 39.91 L 59.506 39.91 Q 57.81 39.91 56.901 38.925 L 56.901 38.925 L 56.901 38.925 Q 55.992 37.941 55.992 36.098 L 55.992 36.098 L 55.992 36.098 Q 55.992 34.255 56.904 33.284 L 56.904 33.284 L 56.904 33.284 Q 57.815 32.312 59.516 32.312 L 59.516 32.312 L 59.516 32.312 Q 61.217 32.312 62.118 33.291 L 62.118 33.291 L 62.118 33.291 Q 63.02 34.271 63.02 36.108 Z  M 57.633 36.108 L 57.633 36.108 L 57.633 36.108 Q 57.633 37.345 58.103 37.971 L 58.103 37.971 L 58.103 37.971 Q 58.572 38.597 59.506 38.597 L 59.506 38.597 L 59.506 38.597 Q 61.379 38.597 61.379 36.108 L 61.379 36.108 L 61.379 36.108 Q 61.379 33.614 59.516 33.614 L 59.516 33.614 L 59.516 33.614 Q 58.582 33.614 58.108 34.243 L 58.108 34.243 L 58.108 34.243 Q 57.633 34.871 57.633 36.108 Z  M 64.549 39.809 L 64.549 32.428 L 66.846 32.428 L 66.846 32.428 Q 68.416 32.428 69.126 32.875 L 69.126 32.875 L 69.126 32.875 Q 69.835 33.322 69.835 34.296 L 69.835 34.296 L 69.835 34.296 Q 69.835 34.957 69.524 35.381 L 69.524 35.381 L 69.524 35.381 Q 69.214 35.805 68.699 35.891 L 68.699 35.891 L 68.699 35.942 L 68.699 35.942 Q 69.401 36.098 69.711 36.527 L 69.711 36.527 L 69.711 36.527 Q 70.022 36.956 70.022 37.668 L 70.022 37.668 L 70.022 37.668 Q 70.022 38.678 69.292 39.243 L 69.292 39.243 L 69.292 39.243 Q 68.563 39.809 67.311 39.809 L 67.311 39.809 L 64.549 39.809 Z  M 66.114 33.71 L 66.114 35.351 L 67.023 35.351 L 67.023 35.351 Q 67.659 35.351 67.944 35.154 L 67.944 35.154 L 67.944 35.154 Q 68.229 34.957 68.229 34.503 L 68.229 34.503 L 68.229 34.503 Q 68.229 34.079 67.919 33.895 L 67.919 33.895 L 67.919 33.895 Q 67.609 33.71 66.937 33.71 L 66.937 33.71 L 66.114 33.71 Z  M 67.084 36.593 L 66.114 36.593 L 66.114 38.516 L 67.134 38.516 L 67.134 38.516 Q 67.78 38.516 68.088 38.269 L 68.088 38.269 L 68.088 38.269 Q 68.396 38.022 68.396 37.512 L 68.396 37.512 L 68.396 37.512 Q 68.396 36.593 67.084 36.593 L 67.084 36.593 Z  M 73.061 39.809 L 71.496 39.809 L 71.496 32.428 L 73.061 32.428 L 73.061 39.809 Z  M 78.261 35.694 L 80.855 39.809 L 79.078 39.809 L 77.145 36.699 L 76.484 37.173 L 76.484 39.809 L 74.919 39.809 L 74.919 32.428 L 76.484 32.428 L 76.484 35.805 L 77.099 34.937 L 79.099 32.428 L 80.835 32.428 L 78.261 35.694 Z  M 86.035 38.516 L 86.035 39.809 L 81.784 39.809 L 81.784 32.428 L 86.035 32.428 L 86.035 33.71 L 83.349 33.71 L 83.349 35.331 L 85.848 35.331 L 85.848 36.613 L 83.349 36.613 L 83.349 38.516 L 86.035 38.516 Z " fill-rule="evenodd" fill="rgb(255,255,255)"/></g></g></svg>